<?xml version="1.0" encoding="UTF-8" standalone="no"?>
<!-- Created with Inkscape (http://www.inkscape.org/) -->

<svg
   xmlns:dc="http://purl.org/dc/elements/1.1/"
   xmlns:cc="http://creativecommons.org/ns#"
   xmlns:rdf="http://www.w3.org/1999/02/22-rdf-syntax-ns#"
   xmlns:svg="http://www.w3.org/2000/svg"
   xmlns="http://www.w3.org/2000/svg"
   xmlns:sodipodi="http://sodipodi.sourceforge.net/DTD/sodipodi-0.dtd"
   xmlns:inkscape="http://www.inkscape.org/namespaces/inkscape"
   width="210mm"
   height="297mm"
   viewBox="0 0 210 297"
   version="1.1"
   id="svg8"
   inkscape:version="0.92.0 r15299"
   sodipodi:docname="nature.svg">
  <defs
     id="defs2" />
  <sodipodi:namedview
     id="base"
     pagecolor="#ffffff"
     bordercolor="#666666"
     borderopacity="1.0"
     inkscape:pageopacity="0.0"
     inkscape:pageshadow="2"
     inkscape:zoom="0.49497475"
     inkscape:cx="-47.916882"
     inkscape:cy="292.4525"
     inkscape:document-units="mm"
     inkscape:current-layer="layer1"
     showgrid="false"
     inkscape:window-width="1680"
     inkscape:window-height="987"
     inkscape:window-x="-8"
     inkscape:window-y="-8"
     inkscape:window-maximized="1" />
  <metadata
     id="metadata5">
    <rdf:RDF>
      <cc:Work
         rdf:about="">
        <dc:format>image/svg+xml</dc:format>
        <dc:type
           rdf:resource="http://purl.org/dc/dcmitype/StillImage" />
        <dc:title />
      </cc:Work>
    </rdf:RDF>
  </metadata>
  <g
     inkscape:label="Calque 1"
     inkscape:groupmode="layer"
     id="layer1">
    <rect
       style="opacity:1;fill:#ff0000;fill-opacity:1;stroke:none;stroke-width:2.01938272;stroke-linecap:round;stroke-linejoin:round;stroke-miterlimit:4;stroke-dasharray:none;stroke-dashoffset:20;stroke-opacity:1;paint-order:fill markers stroke"
       id="rect4632"
       width="245.69182"
       height="188.56465"
       x="-55.442017"
       y="21.077381" />
    <path
       style="color:#000000;font-style:normal;font-variant:normal;font-weight:normal;font-stretch:normal;font-size:medium;line-height:normal;font-family:sans-serif;font-variant-ligatures:normal;font-variant-position:normal;font-variant-caps:normal;font-variant-numeric:normal;font-variant-alternates:normal;font-feature-settings:normal;text-indent:0;text-align:start;text-decoration:none;text-decoration-line:none;text-decoration-style:solid;text-decoration-color:#000000;letter-spacing:normal;word-spacing:normal;text-transform:none;writing-mode:lr-tb;direction:ltr;text-orientation:mixed;dominant-baseline:auto;baseline-shift:baseline;text-anchor:start;white-space:normal;shape-padding:0;clip-rule:nonzero;display:inline;overflow:visible;visibility:visible;opacity:1;isolation:auto;mix-blend-mode:normal;color-interpolation:sRGB;color-interpolation-filters:linearRGB;solid-color:#000000;solid-opacity:1;vector-effect:none;fill:#ffffff;fill-opacity:1;fill-rule:evenodd;stroke:none;stroke-width:1.5;stroke-linecap:round;stroke-linejoin:miter;stroke-miterlimit:4;stroke-dasharray:none;stroke-dashoffset:0;stroke-opacity:1;color-rendering:auto;image-rendering:auto;shape-rendering:auto;text-rendering:auto;enable-background:accumulate"
       d="m 18.736988,26.552531 a 0.75007498,0.75007498 0 0 0 -0.738458,0.761712 v 1.058333 A 1.8333528,1.8333528 0 0 0 16.442037,27.560223 H 1.3576862 a 1.8333528,1.8333528 0 1 0 0,3.665926 H 16.442037 a 1.8333528,1.8333528 0 0 0 1.556493,-0.80977 v 4.799706 A 1.8333528,1.8333528 0 0 0 16.442037,34.404248 H -2.9293893 a 1.8333528,1.8333528 0 1 0 0,3.665926 H 16.442037 a 1.8333528,1.8333528 0 0 0 1.556493,-0.810286 v 4.899443 A 1.8333528,1.8333528 0 0 0 16.457541,41.34181 L -5.7710777,41.154223 a 1.8333528,1.8333528 0 1 0 -0.031004,3.665927 l 22.2281007,0.187587 a 1.8333528,1.8333528 0 0 0 1.572511,-0.815973 v 4.711859 A 1.8333528,1.8333528 0 0 0 16.442037,48.091786 H -8.9626141 a 1.8333528,1.8333528 0 1 0 0,3.665924 H 16.442037 a 1.8333528,1.8333528 0 0 0 1.556493,-0.810287 v 4.799709 a 1.8333528,1.8333528 0 0 0 -1.556493,-0.811837 h -26.831953 a 1.8333528,1.8333528 0 1 0 0,3.665926 h 26.831953 a 1.8333528,1.8333528 0 0 0 1.556493,-0.80977 v 4.855517 a 1.833984,1.833984 0 0 0 -1.556493,-0.867646 h -28.10371 a 1.8339965,1.8339965 0 1 0 0,3.667993 h 28.10371 a 1.833984,1.833984 0 0 0 1.556493,-0.866614 v 4.856033 a 1.8333528,1.8333528 0 0 0 -1.556493,-0.811837 h -29.214753 a 1.8333528,1.8333528 0 1 0 0,3.665927 h 29.214753 a 1.8333528,1.8333528 0 0 0 1.556493,-0.810287 v 4.800224 A 1.8333528,1.8333528 0 0 0 16.442037,75.468409 H -13.56595 a 1.8333528,1.8333528 0 1 0 0,3.665926 h 30.007987 a 1.8333528,1.8333528 0 0 0 1.556493,-0.809771 v 4.799709 a 1.8333528,1.8333528 0 0 0 -1.556493,-0.811837 h -29.3734 a 1.8333528,1.8333528 0 1 0 0,3.665926 h 29.3734 a 1.8333528,1.8333528 0 0 0 1.556493,-0.810286 v 4.803838 a 1.8333528,1.8333528 0 0 0 -1.568378,-0.815969 l -28.896427,0.189653 a 1.8333528,1.8333528 0 1 0 0.02325,3.665926 l 28.896427,-0.189653 a 1.8333528,1.8333528 0 0 0 1.545124,-0.813903 v 4.803841 A 1.8333528,1.8333528 0 0 0 16.442033,95.999972 H -11.34335 a 1.8333528,1.8333528 0 1 0 0,3.665926 h 27.785383 a 1.8333528,1.8333528 0 0 0 1.556493,-0.810286 v 4.855518 a 1.833985,1.833985 0 0 0 -1.556493,-0.86765 H -10.38992 a 1.8339964,1.8339964 0 1 0 0,3.66799 h 26.831953 a 1.833985,1.833985 0 0 0 1.556493,-0.86609 v 4.85603 a 1.8333528,1.8333528 0 0 0 -1.556493,-0.81235 H -8.1673137 a 1.8333528,1.8333528 0 1 0 0,3.66644 H 16.442037 a 1.8333528,1.8333528 0 0 0 1.556493,-0.81029 v 4.80023 a 1.8333528,1.8333528 0 0 0 -1.556493,-0.81235 H -5.1519924 a 1.8333528,1.8333528 0 1 0 0,3.66592 H 16.442037 a 1.8333528,1.8333528 0 0 0 1.556493,-0.81028 v 4.80022 a 1.8333528,1.8333528 0 0 0 -1.556493,-0.81236 H -0.3884606 a 1.8333528,1.8333528 0 1 0 0,3.66645 H 16.442037 a 1.8333528,1.8333528 0 0 0 1.556493,-0.81029 v 13.15165 a 0.7500845,0.7500845 0 1 0 1.500169,0 v -9.69915 a 1.8224034,1.8224034 0 0 0 1.554427,0.91002 l 15.879133,0.19379 a 1.8225086,1.8225086 0 0 0 0.04496,-3.64474 l -15.879133,-0.19327 a 1.8224034,1.8224034 0 0 0 -1.599385,0.91313 v -5.12941 a 1.8220133,1.8220133 0 0 0 1.577682,0.82941 h 21.070548 a 1.8220133,1.8220133 0 1 0 0,-3.64267 h -21.07055 a 1.8220133,1.8220133 0 0 0 -1.577682,0.82992 v -5.0462 a 1.8220133,1.8220133 0 0 0 1.577682,0.82992 h 25.803073 a 1.8220133,1.8220133 0 1 0 0,-3.64267 H 21.076381 a 1.8220133,1.8220133 0 0 0 -1.577682,0.82941 v -5.04569 a 1.8220133,1.8220133 0 0 0 1.577682,0.82941 h 28.091825 a 1.8220133,1.8220133 0 1 0 0,-3.64268 H 21.076381 a 1.8220133,1.8220133 0 0 0 -1.577682,0.82993 v -5.04621 a 1.8220133,1.8220133 0 0 0 1.577682,0.82993 H 50.23894 a 1.8220133,1.8220133 0 1 0 0,-3.642672 H 21.076381 a 1.8220133,1.8220133 0 0 0 -1.577682,0.829405 v -4.526338 a 1.799218,1.799218 0 0 0 1.468644,0.712618 h 30.431735 a 1.799218,1.799218 0 1 0 0,-3.597714 H 20.967343 a 1.799218,1.799218 0 0 0 -1.468644,0.711586 v -4.669999 a 1.799218,1.799218 0 0 0 1.468644,0.7121 h 31.043065 a 1.799218,1.799218 0 1 0 0,-3.597714 H 20.967343 a 1.799218,1.799218 0 0 0 -1.468644,0.712102 v -4.672581 a 1.799218,1.799218 0 0 0 1.480529,0.714684 l 30.888554,-0.189653 a 1.799218,1.799218 0 1 0 -0.0217,-3.597714 l -30.888553,0.189653 a 1.799218,1.799218 0 0 0 -1.458826,0.715203 v -5.832721 a 1.822266,1.822266 0 0 0 1.577682,0.912606 h 29.619378 a 1.8223693,1.8223693 0 0 0 0,-3.644738 H 21.076381 a 1.822266,1.822266 0 0 0 -1.577682,0.915191 v -5.212085 a 1.8222655,1.8222655 0 0 0 1.577682,0.912087 h 28.398781 a 1.8223693,1.8223693 0 0 0 0,-3.644738 H 21.076381 a 1.8222655,1.8222655 0 0 0 -1.577682,0.915191 v -5.212086 a 1.8222655,1.8222655 0 0 0 1.577682,0.912088 h 25.803073 a 1.8222655,1.8222655 0 0 0 0,-3.64422 H 21.076381 a 1.8222655,1.8222655 0 0 0 -1.577682,0.915188 v -5.212085 a 1.8222655,1.8222655 0 0 0 1.577682,0.91209 h 24.427965 a 1.8223693,1.8223693 0 1 0 0,-3.644738 H 21.076381 a 1.8222655,1.8222655 0 0 0 -1.577682,0.915188 v -5.036902 a 1.8220133,1.8220133 0 0 0 1.5937,0.833025 l 21.374922,-0.193786 a 1.8223411,1.8223411 0 0 0 -0.03307,-3.644223 L 21.05881,42.695215 a 1.8220133,1.8220133 0 0 0 -1.560111,0.83199 V 38.38075 a 1.8220133,1.8220133 0 0 0 1.577682,0.829924 h 18.627285 a 1.8220133,1.8220133 0 1 0 0,-3.642672 H 21.076381 a 1.8220133,1.8220133 0 0 0 -1.577682,0.829407 v -5.045688 a 1.8220133,1.8220133 0 0 0 1.577682,0.829923 h 14.504024 a 1.8220133,1.8220133 0 1 0 0,-3.642672 H 21.076381 a 1.8220133,1.8220133 0 0 0 -1.577682,0.829408 v -2.054137 a 0.75007498,0.75007498 0 0 0 -0.761711,-0.761712 z"
       id="path4485"
       inkscape:connector-curvature="0"
       inkscape:export-filename="C:\Users\rodzi_000\path4485.png"
       inkscape:export-xdpi="90"
       inkscape:export-ydpi="90" />
    <g
       id="g4750"
       inkscape:export-xdpi="90"
       inkscape:export-ydpi="90">
      <path
         inkscape:spray-origin="#path4546"
         style="opacity:1;fill:#ffffff;fill-opacity:1;stroke:none;stroke-width:1.24291611;stroke-linecap:round;stroke-linejoin:round;stroke-miterlimit:4;stroke-dasharray:none;stroke-dashoffset:20;stroke-opacity:1;paint-order:fill markers stroke"
         d="m -0.30300577,184.57655 c 1.82154997,-5.54879 3.26080997,-11.51904 8.84192997,-16.10158 1.5743898,-1.04085 6.5940398,-3.24805 7.0842198,-2.46868 -5.48473,3.64954 -10.8734298,7.96248 -11.2522798,13.26272 -0.76483,3.93047 -0.70881,8.12589 -3.91789997,11.6476 -3.91016003,-1.34908 -0.46894,-4.31804 -0.75597,-6.34006 z"
         id="path4654"
         inkscape:connector-curvature="0" />
      <path
         inkscape:spray-origin="#path4528"
         style="opacity:1;fill:#ffffff;fill-opacity:1;stroke:none;stroke-width:1.35850835;stroke-linecap:round;stroke-linejoin:round;stroke-miterlimit:4;stroke-dasharray:none;stroke-dashoffset:20;stroke-opacity:1;paint-order:fill markers stroke"
         d="m -34.142316,184.86821 c 3.0125,-6.17058 2.77142,-13.00867 -1.36918,-18.9445 -0.90229,-1.83413 -4.37355,-5.60536 -3.82152,-6.1871 6.626,4.18745 10.01337,10.08277 10.2812,15.99384 0.63737,4.8372 -0.004,10.12989 -4.58625,14.16039 -1.79659,1.84189 -5.54694,1.0497 -3.29992,-1.15533 0.73142,-1.34721 1.9918,-2.54024 2.79567,-3.8673 z"
         id="path4656"
         inkscape:connector-curvature="0" />
      <path
         inkscape:spray-origin="#path4542"
         style="opacity:1;fill:#ffffff;fill-opacity:1;stroke:none;stroke-width:0.99028206;stroke-linecap:round;stroke-linejoin:round;stroke-miterlimit:4;stroke-dasharray:none;stroke-dashoffset:20;stroke-opacity:1;paint-order:fill markers stroke"
         d="m -24.211306,186.53618 c 2.87327,-2.75129 1.6501,-6.21161 1.78037,-9.31151 -0.2979,-2.75455 -0.8622,-5.5362 -2.42816,-8.1249 3.13943,2.79017 4.38755,6.29226 4.053,9.69602 0.34267,3.33317 1.28173,6.99422 -1.69856,9.97763 -0.26645,1.38878 -5.04861,3.53072 -4.11178,0.89176 0.70565,-1.0723 1.55177,-2.10308 2.40513,-3.129 z"
         id="path4658"
         inkscape:connector-curvature="0" />
      <path
         inkscape:spray-origin="#path4546"
         style="opacity:1;fill:#ffffff;fill-opacity:1;stroke:none;stroke-width:0.96035421;stroke-linecap:round;stroke-linejoin:round;stroke-miterlimit:4;stroke-dasharray:none;stroke-dashoffset:20;stroke-opacity:1;paint-order:fill markers stroke"
         d="m -13.503986,186.04729 c 1.02454,-4.33198 1.7253,-8.97823 5.7162802,-12.67139 1.14309,-0.84753 4.86387,-2.69244 5.29546,-2.10512 -3.98062,2.9707 -7.8416502,6.45044 -7.7703502,10.5498 -0.3204,3.05366 0.0106,6.28843 -2.22338,9.09603 -3.10883,-0.92986 -0.65791,-3.31765 -1.01801,-4.86932 z"
         id="path4660"
         inkscape:connector-curvature="0" />
      <path
         inkscape:spray-origin="#path4544"
         style="opacity:1;fill:#ffffff;fill-opacity:1;stroke:none;stroke-width:0.8195067;stroke-linecap:round;stroke-linejoin:round;stroke-miterlimit:4;stroke-dasharray:none;stroke-dashoffset:20;stroke-opacity:1;paint-order:fill markers stroke"
         d="m -19.097226,187.20055 c 2.26974,-2.43749 1.48016,-5.39815 1.50666,-8.09362 -0.31233,-0.84114 -0.97063,-3.85366 0.32294,-1.5443 2.52858,4.14204 1.9722,8.96981 -1.16644,12.91044 -3.01179,1.46154 -2.0327,-0.96449 -0.66316,-3.27252 z"
         id="path4662"
         inkscape:connector-curvature="0" />
      <path
         inkscape:spray-origin="#path4538"
         style="opacity:1;fill:#ffffff;fill-opacity:1;stroke:none;stroke-width:0.84202218;stroke-linecap:round;stroke-linejoin:round;stroke-miterlimit:4;stroke-dasharray:none;stroke-dashoffset:20;stroke-opacity:1;paint-order:fill markers stroke"
         d="m -33.002556,187.48695 c -0.50282,-4.55887 2.10642,-8.98285 5.05411,-13.04398 0.50115,-0.77187 2.92727,-3.44985 1.96339,-1.17364 -0.7709,2.93493 -3.91461,5.32948 -4.52073,8.29853 -0.90172,2.54198 -0.20284,5.12663 0.5106,7.64098 1.07767,1.7685 -2.2846,2.5128 -2.41767,0.51185 -0.25749,-0.73788 -0.26871,-1.50399 -0.5897,-2.23374 z"
         id="path4664"
         inkscape:connector-curvature="0" />
      <path
         inkscape:spray-origin="#path4542"
         style="opacity:1;fill:#ffffff;fill-opacity:1;stroke:none;stroke-width:0.85485291;stroke-linecap:round;stroke-linejoin:round;stroke-miterlimit:4;stroke-dasharray:none;stroke-dashoffset:20;stroke-opacity:1;paint-order:fill markers stroke"
         d="m 7.3157442,187.18493 c 2.65267,-2.29679 1.81822,-5.31269 2.12786,-7.98223 -0.0815,-2.383 -0.39103,-4.79638 -1.57654,-7.06973 2.5294398,2.48846 3.3827298,5.54103 2.8775898,8.46721 0.0833,2.8831 0.65999,6.06463 -2.0997298,8.55874 -0.31815,1.1905 -4.57802,2.91167 -3.60224,0.6608 0.67673,-0.90605 1.47192,-1.77262 2.27306,-2.63479 z"
         id="path4666"
         inkscape:connector-curvature="0" />
      <path
         inkscape:spray-origin="#path4542"
         style="opacity:1;fill:#ffffff;fill-opacity:1;stroke:none;stroke-width:1.29093099;stroke-linecap:round;stroke-linejoin:round;stroke-miterlimit:4;stroke-dasharray:none;stroke-dashoffset:20;stroke-opacity:1;paint-order:fill markers stroke"
         d="m -4.4169658,185.21529 c 3.77941003,-3.57188 2.22755,-8.08889 2.43555,-12.12919 -0.35439,-3.59226 -1.05573,-7.22124 -3.06519,-10.60378 4.05811003,3.65318 5.64198003,8.22477 5.16393003,12.66013 0.40565,4.34678 1.58466997,9.12402 -2.33711003,12.99794 -0.36444,1.80903 -6.62474,4.57688 -5.371,1.14155 0.93309,-1.39422 2.04875,-2.73362 3.17382,-4.06665 z"
         id="path4668"
         inkscape:connector-curvature="0" />
      <path
         inkscape:spray-origin="#path4546"
         style="opacity:1;fill:#ffffff;fill-opacity:1;stroke:none;stroke-width:0.99618149;stroke-linecap:round;stroke-linejoin:round;stroke-miterlimit:4;stroke-dasharray:none;stroke-dashoffset:20;stroke-opacity:1;paint-order:fill markers stroke"
         d="m 18.426024,185.83729 c 1.4229,-4.45225 2.5366,-9.24121 6.97917,-12.9294 1.25488,-0.83855 5.26329,-2.62141 5.66135,-1.99812 -4.37153,2.94013 -8.66167,6.41172 -8.92995,10.66077 -0.58676,3.15229 -0.51387,6.51466 -3.06238,9.34607 -3.1429,-1.07047 -0.40466,-3.45951 -0.64819,-5.07932 z"
         id="path4670"
         inkscape:connector-curvature="0" />
      <path
         inkscape:spray-origin="#path4546"
         style="opacity:1;fill:#ffffff;fill-opacity:1;stroke:none;stroke-width:1.00423789;stroke-linecap:round;stroke-linejoin:round;stroke-miterlimit:4;stroke-dasharray:none;stroke-dashoffset:20;stroke-opacity:1;paint-order:fill markers stroke"
         d="m 50.025254,185.79976 c 1.3781,-4.49553 2.44025,-9.32889 6.871987,-13.06998 1.254403,-0.85186 5.27256,-2.67 5.681719,-2.04377 -4.369603,2.98664 -8.650416,6.50858 -8.867156,10.79327 -0.55166,3.18074 -0.43569,6.56981 -2.96896,9.43733 -3.18173,-1.06268 -0.45163,-3.48526 -0.71759,-5.11685 z"
         id="path4672"
         inkscape:connector-curvature="0" />
      <path
         inkscape:spray-origin="#path4548"
         style="opacity:1;fill:#ffffff;fill-opacity:1;stroke:none;stroke-width:1.03050482;stroke-linecap:round;stroke-linejoin:round;stroke-miterlimit:4;stroke-dasharray:none;stroke-dashoffset:20;stroke-opacity:1;paint-order:fill markers stroke"
         d="m 39.370704,186.48412 c 3.09969,-5.17082 2.88216,-10.80512 3.65206,-16.22178 0.50963,-1.08746 3.40462,-5.2223 2.86275,-2.13928 -0.55415,4.14126 -1.69451,8.24572 -1.80004,12.41208 -0.34642,3.61819 -1.19567,7.61549 -5.47979,10.25118 -4.7562,0.93776 0.0675,-3.4655 0.76502,-4.3022 z"
         id="path4674"
         inkscape:connector-curvature="0" />
      <path
         inkscape:spray-origin="#path4528"
         style="opacity:1;fill:#ffffff;fill-opacity:1;stroke:none;stroke-width:0.92446172;stroke-linecap:round;stroke-linejoin:round;stroke-miterlimit:4;stroke-dasharray:none;stroke-dashoffset:20;stroke-opacity:1;paint-order:fill markers stroke"
         d="m 15.687744,186.77333 c 1.82827,-4.24117 1.4199,-8.88826 -1.60832,-12.86412 -0.67922,-1.23408 -3.17485,-3.74767 -2.8202,-4.15147 4.65608,2.75007 7.17057,6.70951 7.56401,10.72573 0.60637,3.28041 0.35989,6.88948 -2.61303,9.69834 -1.15604,1.27922 -3.735,0.79584 -2.2856,-0.73701 0.44929,-0.92705 1.26385,-1.75705 1.76314,-2.67147 z"
         id="path4676"
         inkscape:connector-curvature="0" />
      <path
         inkscape:spray-origin="#path4548"
         style="opacity:1;fill:#ffffff;fill-opacity:1;stroke:none;stroke-width:0.99828452;stroke-linecap:round;stroke-linejoin:round;stroke-miterlimit:4;stroke-dasharray:none;stroke-dashoffset:20;stroke-opacity:1;paint-order:fill markers stroke"
         d="m 26.436874,186.58596 c 2.74491,-5.0699 2.2551,-10.52064 2.73209,-15.78085 0.43955,-1.06333 3.03762,-5.126 2.66575,-2.12989 -0.33131,4.02095 -1.23202,8.01828 -1.12774,12.05435 -0.15611,3.51026 -0.78029,7.39787 -4.7976,10.03748 -4.55853,1.00535 -0.10637,-3.3567 0.5275,-4.18109 z"
         id="path4678"
         inkscape:connector-curvature="0" />
      <path
         inkscape:spray-origin="#path4546"
         style="opacity:1;fill:#ffffff;fill-opacity:1;stroke:none;stroke-width:1.43534267;stroke-linecap:round;stroke-linejoin:round;stroke-miterlimit:4;stroke-dasharray:none;stroke-dashoffset:20;stroke-opacity:1;paint-order:fill markers stroke"
         d="m 44.187864,183.59311 c 2.13763,-6.40319 3.83639,-13.29404 10.309691,-18.57185 1.824501,-1.19798 7.634826,-3.73414 8.196106,-2.83288 -6.356265,4.20061 -12.605687,9.16757 -13.075757,15.28739 -0.90736,4.53701 -0.86845,9.38207 -4.59599,13.44084 -4.5072,-1.56786 -0.51501,-4.98771 -0.83405,-7.3235 z"
         id="path4680"
         inkscape:connector-curvature="0" />
      <path
         inkscape:spray-origin="#path4544"
         style="opacity:1;fill:#ffffff;fill-opacity:1;stroke:none;stroke-width:0.83589679;stroke-linecap:round;stroke-linejoin:round;stroke-miterlimit:4;stroke-dasharray:none;stroke-dashoffset:20;stroke-opacity:1;paint-order:fill markers stroke"
         d="m 31.584164,187.13007 c 2.34472,-2.47475 1.57539,-5.49853 1.6352,-8.24768 -0.30833,-0.85951 -0.94313,-3.9355 0.34817,-1.57353 2.52868,4.23748 1.90246,9.15886 -1.34679,13.16241 -3.08971,1.47558 -2.06155,-0.99397 -0.63658,-3.3412 z"
         id="path4682"
         inkscape:connector-curvature="0" />
      <path
         inkscape:spray-origin="#path4538"
         style="opacity:1;fill:#ffffff;fill-opacity:1;stroke:none;stroke-width:1.30181015;stroke-linecap:round;stroke-linejoin:round;stroke-miterlimit:4;stroke-dasharray:none;stroke-dashoffset:20;stroke-opacity:1;paint-order:fill markers stroke"
         d="m 55.582015,185.59247 c -0.64939,-7.05359 3.508549,-13.86259 8.179497,-20.10669 0.796424,-1.18745 4.622246,-5.29933 3.068239,-1.79161 -1.274144,4.52832 -6.201374,8.19369 -7.221727,12.77666 -1.465369,3.91931 -0.457492,7.92314 0.57488,11.81847 1.616384,2.74651 -3.6024,3.85816 -3.751945,0.76327 -0.377359,-1.14373 -0.373214,-2.32822 -0.848944,-3.4601 z"
         id="path4684"
         inkscape:connector-curvature="0" />
      <path
         inkscape:spray-origin="#path4548"
         style="opacity:1;fill:#ffffff;fill-opacity:1;stroke:none;stroke-width:1.03776085;stroke-linecap:round;stroke-linejoin:round;stroke-miterlimit:4;stroke-dasharray:none;stroke-dashoffset:20;stroke-opacity:1;paint-order:fill markers stroke"
         d="m 64.645815,186.44227 c 3.049573,-5.22482 2.752259,-10.89732 3.452319,-16.35632 0.498086,-1.098 3.355922,-5.2784 2.85308,-2.17069 -0.500501,4.17343 -1.591821,8.31318 -1.640236,12.50932 -0.29858,3.64551 -1.098267,7.67567 -5.375769,10.3544 -4.776474,0.97163 0.01981,-3.49015 0.710606,-4.33671 z"
         id="path4686"
         inkscape:connector-curvature="0" />
      <path
         inkscape:spray-origin="#path4546"
         style="opacity:1;fill:#ffffff;fill-opacity:1;stroke:none;stroke-width:0.98675692;stroke-linecap:round;stroke-linejoin:round;stroke-miterlimit:4;stroke-dasharray:none;stroke-dashoffset:20;stroke-opacity:1;paint-order:fill markers stroke"
         d="m 75.180835,185.90256 c 1.172203,-4.43872 2.020431,-9.20401 6.222529,-12.9526 1.197747,-0.85765 5.07121,-2.71054 5.498377,-2.10224 -4.1715,3.0065 -8.234193,6.53731 -8.274161,10.74956 -0.413492,3.13348 -0.162803,6.46046 -2.535379,9.31933 -3.168149,-0.99076 -0.584273,-3.41586 -0.911366,-5.01405 z"
         id="path4688"
         inkscape:connector-curvature="0" />
      <path
         inkscape:spray-origin="#path4538"
         style="opacity:1;fill:#ffffff;fill-opacity:1;stroke:none;stroke-width:0.89958817;stroke-linecap:round;stroke-linejoin:round;stroke-miterlimit:4;stroke-dasharray:none;stroke-dashoffset:20;stroke-opacity:1;paint-order:fill markers stroke"
         d="m 87.276323,187.28743 c -0.734539,-4.85989 1.86048,-9.63143 4.832665,-14.0215 0.501793,-0.83333 2.976876,-3.73685 2.046058,-1.2886 -0.696164,3.14833 -3.949918,5.76199 -4.468613,8.94379 -0.852914,2.73098 0.0054,5.47889 0.876363,8.15145 1.227577,1.86948 -2.331093,2.72458 -2.559897,0.58995 -0.306972,-0.78346 -0.352155,-1.60146 -0.726576,-2.37509 z"
         id="path4690"
         inkscape:connector-curvature="0" />
      <path
         inkscape:spray-origin="#path4548"
         style="opacity:1;fill:#ffffff;fill-opacity:1;stroke:none;stroke-width:1.00150418;stroke-linecap:round;stroke-linejoin:round;stroke-miterlimit:4;stroke-dasharray:none;stroke-dashoffset:20;stroke-opacity:1;paint-order:fill markers stroke"
         d="m 70.794166,186.583 c 2.833859,-5.06804 2.428734,-10.53928 2.990503,-15.81307 0.457764,-1.06384 3.12836,-5.12241 2.707895,-2.11923 -0.39599,4.03155 -1.362811,8.03568 -1.322075,12.08524 -0.212149,3.52038 -0.899828,7.41625 -4.971665,10.03797 -4.588898,0.97873 -0.05354,-3.36805 0.595342,-4.19091 z"
         id="path4692"
         inkscape:connector-curvature="0" />
      <path
         inkscape:spray-origin="#path4548"
         style="opacity:1;fill:#ffffff;fill-opacity:1;stroke:none;stroke-width:1.09156299;stroke-linecap:round;stroke-linejoin:round;stroke-miterlimit:4;stroke-dasharray:none;stroke-dashoffset:20;stroke-opacity:1;paint-order:fill markers stroke"
         d="m 102.78597,186.21664 c 3.25081,-5.48521 2.98494,-11.45274 3.76637,-17.1923 0.533,-1.15321 3.57349,-5.54052 3.01891,-2.27346 -0.56093,4.38804 -1.74302,8.73864 -1.82859,13.15209 -0.34419,3.83345 -1.21862,8.06977 -5.73996,10.87273 -5.032066,1.00569 0.0496,-3.67097 0.78327,-4.55906 z"
         id="path4694"
         inkscape:connector-curvature="0" />
      <path
         inkscape:spray-origin="#path4528"
         style="opacity:1;fill:#ffffff;fill-opacity:1;stroke:none;stroke-width:1.2285012;stroke-linecap:round;stroke-linejoin:round;stroke-miterlimit:4;stroke-dasharray:none;stroke-dashoffset:20;stroke-opacity:1;paint-order:fill markers stroke"
         d="m 85.119057,185.46218 c 2.835601,-5.55709 2.741315,-11.74208 -0.895347,-17.14036 -0.782692,-1.66522 -3.853283,-5.10121 -3.343598,-5.62311 5.91565,3.83593 8.871954,9.19196 9.007215,14.53891 0.488816,4.37869 -0.186141,9.15969 -4.403184,12.76991 -1.657834,1.65206 -5.034677,0.90772 -2.962972,-1.06934 0.685736,-1.21271 1.846989,-2.28206 2.597886,-3.47601 z"
         id="path4696"
         inkscape:connector-curvature="0" />
      <path
         inkscape:spray-origin="#path4546"
         style="opacity:1;fill:#ffffff;fill-opacity:1;stroke:none;stroke-width:1.27539945;stroke-linecap:round;stroke-linejoin:round;stroke-miterlimit:4;stroke-dasharray:none;stroke-dashoffset:20;stroke-opacity:1;paint-order:fill markers stroke"
         d="m 138.86779,184.41509 c 1.79755,-5.70332 3.19741,-11.83706 8.86514,-16.56895 1.60206,-1.07639 6.72427,-3.36795 7.2373,-2.57084 -5.58085,3.774 -11.05459,8.22822 -11.37501,13.66883 -0.73411,4.03714 -0.62254,8.34176 -3.87,11.97248 -4.0296,-1.36346 -0.53684,-4.42825 -0.85743,-6.50152 z"
         id="path4698"
         inkscape:connector-curvature="0" />
      <path
         inkscape:spray-origin="#path4546"
         style="opacity:1;fill:#ffffff;fill-opacity:1;stroke:none;stroke-width:1.4080745;stroke-linecap:round;stroke-linejoin:round;stroke-miterlimit:4;stroke-dasharray:none;stroke-dashoffset:20;stroke-opacity:1;paint-order:fill markers stroke"
         d="m 94.534857,183.75307 c 1.779043,-6.32194 3.103653,-13.11307 9.189463,-18.42025 1.72962,-1.2119 7.30105,-3.81738 7.89599,-2.94518 -6.02437,4.2486 -11.906052,9.24643 -12.064088,15.25644 -0.665157,4.46703 -0.387235,9.21675 -3.841187,13.27253 -4.496837,-1.4451 -0.751778,-4.87986 -1.180178,-7.16354 z"
         id="path4700"
         inkscape:connector-curvature="0" />
      <path
         inkscape:spray-origin="#path4528"
         style="opacity:1;fill:#ffffff;fill-opacity:1;stroke:none;stroke-width:1.06740141;stroke-linecap:round;stroke-linejoin:round;stroke-miterlimit:4;stroke-dasharray:none;stroke-dashoffset:20;stroke-opacity:1;paint-order:fill markers stroke"
         d="m 110.0787,186.17018 c 2.41094,-4.83936 2.27031,-10.21278 -0.94063,-14.88877 -0.69584,-1.44374 -3.39632,-4.41704 -2.95844,-4.87249 5.17619,3.30963 7.7956,7.95157 7.96388,12.5967 0.46627,3.80248 -0.0748,7.95907 -3.70445,11.11233 -1.42472,1.44189 -4.36573,0.80841 -2.58451,-0.91746 0.58428,-1.05635 1.58308,-1.99 2.22415,-3.03031 z"
         id="path4702"
         inkscape:connector-curvature="0" />
      <path
         inkscape:spray-origin="#path4538"
         style="opacity:1;fill:#ffffff;fill-opacity:1;stroke:none;stroke-width:1.20345473;stroke-linecap:round;stroke-linejoin:round;stroke-miterlimit:4;stroke-dasharray:none;stroke-dashoffset:20;stroke-opacity:1;paint-order:fill markers stroke"
         d="m 125.16161,185.98306 c -0.53,-6.5232 3.38158,-12.80047 7.76177,-18.55344 0.74807,-1.09442 4.32574,-4.87979 2.85421,-1.64357 -1.22299,4.18085 -5.81438,7.54891 -6.80331,11.78131 -1.39369,3.61708 -0.5019,7.32247 0.41362,10.92767 1.46685,2.5456 -3.36861,3.55174 -3.476,0.69013 -0.33744,-1.05885 -0.3218,-2.1538 -0.75029,-3.2021 z"
         id="path4704"
         inkscape:connector-curvature="0" />
      <path
         inkscape:spray-origin="#path4544"
         style="opacity:1;fill:#ffffff;fill-opacity:1;stroke:none;stroke-width:0.77631003;stroke-linecap:round;stroke-linejoin:round;stroke-miterlimit:4;stroke-dasharray:none;stroke-dashoffset:20;stroke-opacity:1;paint-order:fill markers stroke"
         d="m 145.14636,187.38009 c 1.99667,-2.36525 1.06533,-5.14709 0.92285,-7.69888 -0.34789,-0.78807 -1.1582,-3.62235 0.20964,-1.4699 2.65064,3.85528 2.42417,8.43879 -0.30142,12.249 -2.75964,1.46063 -1.98379,-0.86062 -0.83107,-3.08022 z"
         id="path4706"
         inkscape:connector-curvature="0" />
      <path
         inkscape:spray-origin="#path4548"
         style="opacity:1;fill:#ffffff;fill-opacity:1;stroke:none;stroke-width:1.04514933;stroke-linecap:round;stroke-linejoin:round;stroke-miterlimit:4;stroke-dasharray:none;stroke-dashoffset:20;stroke-opacity:1;paint-order:fill markers stroke"
         d="m 134.26029,186.40964 c 3.06596,-5.2633 2.76074,-10.97606 3.46021,-16.47422 0.50052,-1.10603 3.37443,-5.3174 2.87118,-2.18735 -0.49981,4.20335 -1.59468,8.37304 -1.63915,12.59907 -0.29699,3.67159 -1.09825,7.73078 -5.40349,10.43038 -4.80947,0.98057 0.0164,-3.515 0.71125,-4.36788 z"
         id="path4708"
         inkscape:connector-curvature="0" />
      <path
         inkscape:spray-origin="#path4538"
         style="opacity:1;fill:#ffffff;fill-opacity:1;stroke:none;stroke-width:0.76073849;stroke-linecap:round;stroke-linejoin:round;stroke-miterlimit:4;stroke-dasharray:none;stroke-dashoffset:20;stroke-opacity:1;paint-order:fill markers stroke"
         d="m 156.83615,187.83711 c -0.56312,-4.11323 1.68823,-8.13533 4.25396,-11.83298 0.43428,-0.7022 2.56191,-3.14526 1.74557,-1.07957 -0.62627,2.65885 -3.4089,4.85295 -3.8855,7.54097 -0.75384,2.30517 -0.0608,4.63308 0.64376,6.89733 1.01574,1.58693 -2.00374,2.29246 -2.17174,0.48626 -0.25023,-0.66403 -0.27867,-1.35597 -0.58605,-2.01201 z"
         id="path4710"
         inkscape:connector-curvature="0" />
      <path
         inkscape:spray-origin="#path4544"
         style="opacity:1;fill:#ffffff;fill-opacity:1;stroke:none;stroke-width:1.13311362;stroke-linecap:round;stroke-linejoin:round;stroke-miterlimit:4;stroke-dasharray:none;stroke-dashoffset:20;stroke-opacity:1;paint-order:fill markers stroke"
         d="m 114.19156,185.7706 c 3.07266,-3.39517 1.90155,-7.47974 1.86584,-11.2067 -0.45439,-1.15948 -1.44538,-5.3172 0.40503,-2.1387 3.6071,5.69863 2.96744,12.37952 -1.26618,17.86254 -4.12479,2.05407 -2.83623,-1.31094 -1.00469,-4.51714 z"
         id="path4712"
         inkscape:connector-curvature="0" />
      <path
         inkscape:spray-origin="#path4544"
         style="opacity:1;fill:#ffffff;fill-opacity:1;stroke:none;stroke-width:1.15867639;stroke-linecap:round;stroke-linejoin:round;stroke-miterlimit:4;stroke-dasharray:none;stroke-dashoffset:20;stroke-opacity:1;paint-order:fill markers stroke"
         d="m 152.08262,185.64508 c 3.05375,-3.50413 1.75075,-7.66779 1.61785,-11.47795 -0.49457,-1.18061 -1.61531,-5.42098 0.3588,-2.19099 3.83537,5.78788 3.35414,12.62542 -0.83261,18.27663 -4.16416,2.14422 -2.93373,-1.31003 -1.14404,-4.60769 z"
         id="path4714"
         inkscape:connector-curvature="0" />
      <path
         inkscape:spray-origin="#path4542"
         style="opacity:1;fill:#ffffff;fill-opacity:1;stroke:none;stroke-width:1.35253918;stroke-linecap:round;stroke-linejoin:round;stroke-miterlimit:4;stroke-dasharray:none;stroke-dashoffset:20;stroke-opacity:1;paint-order:fill markers stroke"
         d="m 122.54917,184.99845 c 4.15201,-3.65526 2.77288,-8.4201 3.21061,-12.64618 -0.17556,-3.76958 -0.7124,-7.5854 -2.63247,-11.17258 4.05055,3.91666 5.46024,8.73937 4.71822,13.37307 0.18815,4.5608 1.1627,9.58976 -3.15482,13.55809 -0.4801,1.8861 -7.18618,4.64362 -5.68634,1.07456 1.05298,-1.43897 2.29414,-2.81641 3.5448,-4.18696 z"
         id="path4716"
         inkscape:connector-curvature="0" />
    </g>
  </g>
</svg>
