# Blender v2.78 (sub 0) OBJ File: 'tri6.blend'
# www.blender.org
mtllib tri6.mtl
o Plane
v -0.500000 0.000000 -0.233560
v 0.500000 0.000000 -0.233560
v -0.500000 1.000000 -0.233560
v 0.500000 1.000000 -0.233560
v -0.094293 0.000000 0.433013
v 0.405707 0.000000 -0.433013
v -0.094293 1.000000 0.433013
v 0.405707 1.000000 -0.433013
v 0.104025 0.000000 0.433013
v -0.395975 0.000000 -0.433013
v 0.104025 1.000000 0.433013
v -0.395975 1.000000 -0.433013
vt 0.0001 0.0001
vt 0.9999 0.0001
vt 0.9999 0.9999
vt 0.0001 0.9999
vt 0.0001 0.0001
vt 0.9999 0.0001
vt 0.9999 0.9999
vt 0.0001 0.9999
vt 0.0001 0.0001
vt 0.9999 0.0001
vt 0.9999 0.9999
vt 0.0001 0.9999
vn 0.0000 0.0000 1.0000
vn 0.8660 0.0000 0.5000
vn 0.8660 0.0000 -0.5000
usemtl None
s off
f 1/1/1 2/2/1 4/3/1 3/4/1
f 5/5/2 6/6/2 8/7/2 7/8/2
f 9/9/3 10/10/3 12/11/3 11/12/3
